<?xml version="1.0" encoding="UTF-8" standalone="no"?>
<!-- Created with Inkscape (http://www.inkscape.org/) -->

<svg
   width="4958.4258mm"
   height="1018.3343mm"
   viewBox="0 0 4958.4258 1018.3343"
   version="1.1"
   id="svg1"
   xml:space="preserve"
   xmlns="http://www.w3.org/2000/svg"
   xmlns:svg="http://www.w3.org/2000/svg"><defs
     id="defs1" /><g
     id="g8"
     transform="translate(-17.00001,-19.499868)"><path
       style="fill:#ef2d32;fill-opacity:1;stroke-width:35.7771"
       d="M 4282.4418,1036.3938 C 4126.9245,1020.0473 3992.249,935.42849 3913.038,804.2902 c -36.5306,-60.47874 -59.8247,-128.65663 -69.2453,-202.67245 -5.2763,-41.45429 -3.9203,-131.44799 2.5084,-166.43239 33.4137,-181.84555 141.758,-317.72215 305.2921,-382.874012 85.1573,-33.92669 188.7789,-41.91158 288.5581,-22.23619 35.5203,7.00443 81.8331,22.67693 108.615,36.75615 44.104,23.18527 107.3509,76.643882 117.3074,99.152692 6.4055,14.4803 7.0559,37.32209 1.4449,50.74985 -6.4971,15.54939 -14.5639,24.41921 -37.0989,40.79214 -32.3546,23.50721 -40.1226,26.89674 -63.9783,27.91823 -26.4891,1.13462 -39.5163,-4.62208 -67.2983,-29.73896 -24.8506,-22.46605 -36.4161,-30.51802 -59.6347,-41.51843 -49.0043,-23.21631 -120.2808,-28.6616 -178.5782,-13.64244 -27.7802,7.15686 -59.9073,21.68941 -86.2221,39.00227 -27.068,17.80793 -67.7918,58.09415 -85.8739,84.95123 -71.2621,105.84278 -81.4929,248.20254 -26.4065,367.43049 34.8942,75.52375 104.6074,137.55094 181.1756,161.20023 53.6418,16.5683 128.992,16.51605 182.7407,-0.13795 37.5681,-11.63272 65.8373,-29.16596 106.6882,-66.17076 29.4394,-26.6674 42.726,-32.61534 69.2023,-30.97928 23.3548,1.44154 38.241,9.60473 65.2307,35.76362 18.2831,17.72033 21.2673,21.88702 25.0467,34.97095 4.9987,17.30356 3.8647,33.5813 -3.4977,50.22823 -9.6992,21.92703 -83.5034,86.07222 -126.555,109.99275 -37.5124,20.84203 -90.1551,37.48523 -144.8999,45.80943 -31.4045,4.7752 -105.8276,6.8557 -135.1165,3.777 z M 69.241386,1012.967 c -19.8198,-5.5819 -36.0044,-19.82475 -46.1064,-40.57423 l -6.1107,-12.55128 -0.024,-428.97297 c -0.017,-311.60696 0.7515,-431.562072 2.8112,-438.437352 5.0145,-16.73676 19.3879,-32.96192 37.3294,-42.13919 l 16.317,-8.34597 148.108604,1.1122 c 152.4008,1.14496 183.4177,2.8981 234.0508,13.21998 59.5344,12.13882 112.3764,38.31254 148.3666,73.488342 39.0819,38.19805 59.7574,78.30959 69.4398,134.71768 5.1314,29.89484 5.1555,91.39973 0.046,118.26129 -13.6962,72.00765 -52.306,129.3236 -109.8251,163.03492 -18.3486,10.75383 -57.6921,28.65263 -76.6125,34.85352 -7.2485,2.37562 -13.1792,4.91471 -13.1792,5.64238 0,0.72939 48.6098,80.16032 108.0218,176.51648 116.6975,189.26365 117.4569,190.72089 110.8629,212.7293 -4.6513,15.52508 -13.2476,26.1587 -26.7757,33.1219 -11.5277,5.9337 -15.481,6.4922 -51.7183,7.3073 -23.7487,0.5328 -44.8026,-0.2846 -53.3374,-2.0467 -20.1243,-4.1779 -41.2697,-15.54416 -54.8424,-29.47974 -7.99,-8.20354 -44.9409,-67.15968 -116.1026,-185.24508 -57.4105,-95.26639 -107.7891,-176.31836 -111.9526,-180.11501 -7.5521,-6.887 -7.6592,-6.90356 -45.1852,-6.90356 h -37.6151 l -0.024,173.83945 -0.024,173.83945 -5.9395,12.75545 c -7.1865,15.43351 -20.719,29.07194 -36.3673,36.65214 -9.6977,4.6978 -16.5903,5.7426 -41.7397,6.3265 -19.378804,0.45 -34.313804,-0.4794 -41.870604,-2.6081 z M 334.70559,436.49051 c 66.9492,-4.12306 102.8944,-15.09571 129.1843,-39.4356 20.214,-18.71458 25.5921,-32.96692 25.8697,-68.55794 0.3832,-49.11379 -12.9213,-73.09899 -51.145,-92.20275 -34.5008,-17.24355 -45.7496,-18.73683 -151.1529,-20.06629 l -92.2541,-1.16221 v 111.94315 111.94314 l 50.8339,-0.069 c 27.9586,-0.0345 67.8574,-1.1122 88.6641,-2.39338 z m 484.8512,576.26299 c -15.1857,-4.0839 -28.7754,-15.00779 -36.4029,-29.26168 -4.9324,-9.21745 -5.7735,-13.86454 -4.9617,-27.41576 0.9134,-15.25005 13.2833,-44.22323 189.0942,-442.91425 C 1142.727,115.31089 1156.2199,85.670038 1167.5238,73.289468 c 7.7968,-8.53961 18.0763,-16.20705 28.8158,-21.49404 16.5375,-8.14146 17.0398,-8.21906 53.1477,-8.21906 35.2542,0 36.9467,0.24831 51.4825,7.37931 15.8665,7.79004 35.8782,25.84489 42.1773,38.05268 2.0673,4.00667 84.2914,196.499492 182.7196,427.762322 171.1448,402.11348 179.0067,421.25553 180.0104,438.27922 1.224,20.78241 -3.5598,32.94485 -17.9237,45.5561 -14.349,12.5986 -23.4534,14.4622 -70.6518,14.4622 h -42.6755 l -16.8208,-7.9687 c -18.6033,-8.81286 -36.7466,-25.30736 -44.1257,-40.1158 -2.6436,-5.30906 -18.7119,-43.54194 -35.7034,-84.96209 -16.9916,-41.42031 -33.1758,-77.85126 -35.9657,-80.95782 l -5.072,-5.64807 h -196.2331 c -189.0921,0 -196.389,0.17761 -200.5178,4.73434 -2.3565,2.60461 -18.7392,39.03521 -36.4059,80.95783 -39.29491,93.2458 -39.51711,93.68344 -54.88531,108.05855 -14.7744,13.81986 -27.222,20.51086 -45.2759,24.33726 -17.7063,3.7531 -69.0206,3.2951 -84.0637,-0.7518 z M 1370.0355,620.51011 c 0,-5.30958 -124.1648,-309.40567 -125.6701,-307.78238 -1.8463,1.98919 -130.3824,305.81215 -130.3824,308.1857 0,0.70871 57.6118,1.29153 128.0261,1.29153 70.4145,0 128.0264,-0.76216 128.0264,-1.69157 z m 525.9107,392.44869 c -16.8492,-5.5751 -25.3348,-11.0197 -35.9236,-23.04848 -19.5096,-22.16498 -18.048,15.17828 -18.048,-461.00841 0,-412.15533 0.1432,-426.69357 4.7515,-438.784452 7.1168,-18.72924 18.4521,-31.39312 35.9069,-40.11551 l 15.3705,-7.68107 h 58.1926 c 64.4259,0 72.7653,1.34844 94.483,15.28574 7.0432,4.51932 16.9517,13.46225 22.0187,19.87265 6.7369,8.52288 44.2699,92.735572 139.6488,313.330782 71.7396,165.92129 131.0365,301.67685 131.7702,301.67909 0.733,0.002 56.5829,-126.79848 124.1086,-281.7792 67.5261,-154.98071 127.5681,-292.21023 133.4272,-304.95464 12.6063,-27.421972 27.5309,-43.801802 49.9306,-54.799622 l 15.03,-7.37931 h 62.758 c 60.8643,0 63.0987,0.17761 74.0541,5.86275 15.8501,8.22578 28.8255,21.53888 35.6172,36.54286 l 5.8029,12.82114 0.676,420.268002 c 0.4379,270.81275 -0.2139,425.0689 -1.8182,433.76922 -4.9054,26.53755 -19.9704,46.64954 -42.4149,56.62486 -14.8852,6.615 -57.1216,9.0026 -77.7211,4.3924 -25.216,-5.6431 -44.6501,-21.96774 -53.2111,-44.69658 -4.8822,-12.96236 -4.9996,-19.78315 -4.9996,-291.07114 0,-162.12205 -0.9328,-276.80465 -2.2273,-275.41294 -1.2277,1.31222 -55.5578,127.19267 -120.7352,279.73586 -65.1774,152.54319 -120.2113,280.65251 -122.2981,284.68781 -6.3392,12.25866 -26.2939,31.7911 -39.1161,38.28859 -29.2103,14.8019 -55.761,13.2156 -82.7525,-4.9451 -8.5657,-5.7634 -19.1349,-15.18846 -23.4871,-20.94464 -4.8016,-6.35108 -55.6514,-122.11087 -129.3393,-294.44118 l -121.4262,-283.97583 -1.256,279.37943 c -1.1706,260.38207 -1.5548,280.049 -5.7014,289.2273 -7.4414,16.48019 -20.9588,30.73662 -36.2272,38.20682 -12.8176,6.2709 -17.3192,7.0474 -44.5299,7.6806 -20.1582,0.469 -33.6262,-0.4035 -40.3126,-2.6188 z m 1052.3681,0.7553 c -35.3231,-8.8079 -53.2543,-42.37421 -41.0153,-76.77871 6.0776,-17.08319 368.222,-837.712572 374.3643,-848.318622 8.2437,-14.23596 26.647,-30.47767 43.4681,-38.3629 12.6097,-5.91137 17.8673,-6.77268 45.775,-7.49604 26.553,-0.68628 33.7927,-0.0172 45.8754,4.22497 18.079,6.35402 37.2954,20.35064 46.6925,34.00912 3.9932,5.80377 88.2477,200.835332 187.2317,433.404002 169.7852,398.91984 180.0374,423.846 181.1412,440.42361 0.9932,14.91087 0.2845,19.2781 -4.6594,28.83265 -7.7953,15.05709 -23.4842,26.52892 -41.3551,30.23902 -8.6638,1.7997 -28.2096,2.5832 -49.6311,1.9894 -31.9649,-0.8846 -36.737,-1.6244 -49.9884,-7.759 -18.3505,-8.49567 -31.4286,-18.76462 -40.4181,-31.73664 -3.8406,-5.54185 -22.0288,-46.37227 -40.4178,-90.7343 -18.3899,-44.36221 -35.3861,-82.81391 -37.7704,-85.44818 -4.1939,-4.6345 -10.6788,-4.78935 -200.5672,-4.78935 h -196.2331 l -5.0773,5.64807 c -2.7931,3.10553 -19.4722,40.1024 -37.0662,82.2128 -17.5943,42.11057 -34.6816,81.23476 -37.9716,86.943 -8.5971,14.91587 -29.1825,32.3953 -45.7696,38.8645 -12.0109,4.6843 -20.1672,5.696 -50.7125,6.2902 -20.02,0.3897 -40.6726,-0.3586 -45.8951,-1.6605 z m 546.8849,-395.9043 c -15.796,-43.08896 -123.5457,-306.27135 -124.8505,-304.95257 -1.8609,1.88194 -127.1454,297.04441 -129.44,304.95257 -1.2019,4.14341 6.0374,4.39309 127.3134,4.39309 121.4041,0 128.4978,-0.25003 126.9771,-4.39309 z M 4819.4907,316.99736 c -65.1873,-17.53099 -106.0591,-86.04566 -89.4255,-149.9065 14.9478,-57.38941 62.3164,-94.647002 120.331,-94.647002 55.5823,0 103.5461,34.390882 119.9172,85.982892 5.79,18.24677 6.8644,52.38003 2.1809,69.34407 -8.7393,31.66401 -34.0841,63.91861 -61.849,78.71101 -26.3898,14.05956 -62.4921,18.22436 -91.1563,10.51553 z m 52.9388,-13.91644 c 80.74,-17.13147 111.5582,-121.25525 53.9438,-182.25698 -15.0117,-15.89408 -29.1113,-24.482662 -48.4725,-29.525312 -48.4108,-12.60957 -97.8114,9.871832 -119.3757,54.325772 -40.2051,82.87943 27.0719,175.88021 113.9044,157.45652 z m -68.283,-107.9963 V 121.9208 l 37.1616,1.31739 c 30.8617,1.09495 38.8826,2.19663 47.3127,6.49558 13.0527,6.65922 18.5625,15.28867 20.0625,31.42261 1.9854,21.36161 -10.0475,37.00428 -31.9716,41.55981 l -7.3123,1.52087 20.0903,30.91099 c 11.0496,17.00076 20.0903,31.40398 20.0903,32.00647 0,0.60179 -4.4338,1.09495 -9.8524,1.09495 h -9.8525 l -19.6438,-31.3757 -19.6437,-31.37553 -13.1791,-0.003 -13.1791,-0.003 v 31.37898 31.37881 h -10.0412 -10.0417 z m 62.6851,-7.03978 c 21.0896,-4.06892 29.6268,-24.38162 16.6122,-39.52389 -5.816,-6.76648 -7.0994,-7.07703 -32.6343,-7.89954 l -26.5801,-0.85527 v 25.33155 25.33156 l 15.6892,-0.10346 c 8.6295,-0.069 20.74,-1.08461 26.913,-2.27544 z"
       id="path1" /><path
       style="fill:#ef2d32;fill-opacity:1;fill-rule:evenodd;stroke-width:0.487559;stroke-linejoin:round"
       d="M 282.83605,3820.3383 C 200.5168,3793.2183 152.28819,3757.7817 114.51337,3696.6606 74.498141,3631.9146 73.327864,3584.0843 73.327864,2013.3704 73.327864,223.94401 67.80897,297.08311 209.43962,209.55055 l 78.06676,-48.2479 620.95166,11.95429 c 700.75576,13.49065 860.81426,35.64916 1106.89626,153.23886 357.6137,170.88479 530.1701,464.24148 530.1701,901.322 0,438.7337 -181.8713,722.9398 -576.3098,900.5865 -97.8558,44.0722 -177.9196,87.03 -177.9196,95.4618 0,8.4318 163.5973,282.2396 363.5497,608.4616 481.8713,786.173 486.5829,796.015 430.895,900.0689 -49.261,92.0452 -296.8748,131.5833 -490.6579,78.3469 -130.725,-35.9131 -223.2093,-154.2301 -581.1002,-743.4128 -181.3297,-298.5164 -360.5561,-589.8964 -398.2808,-647.5112 l -68.5904,-104.7541 -162.15358,-6.1189 -162.15359,-6.1191 -0.0775,666.0699 c -0.0733,631.1157 -2.29719,669.709 -42.3604,735.4206 -23.25513,38.1429 -74.77035,82.9253 -114.47826,99.5164 -69.74477,29.1407 -218.3862,37.8079 -283.051,16.504 z M 1273.7991,1654.9194 c 275.5345,-22.8299 412.0913,-68.3266 509.1499,-169.6339 51.0457,-53.2803 60.5812,-82.3609 67.5717,-206.0748 10.7147,-189.6254 -21.5952,-282.1767 -124.5433,-356.75194 -111.946,-81.0932 -220.2178,-100.63371 -641.7726,-115.82481 L 722.80323,793.61054 v 441.22746 441.2275 l 151.89343,-0.3317 c 83.54139,-0.1823 263.13744,-9.5489 399.10244,-20.8145 z"
       id="path2"
       transform="scale(0.26458333)" /><path
       style="fill:#ef2d32;fill-opacity:1;fill-rule:evenodd;stroke-width:0.487559;stroke-linejoin:round"
       d="m 3075.8884,3803.3349 c -97.0984,-42.231 -141.6875,-138.724 -109.8594,-237.7409 43.89,-136.5417 1271.3386,-2930.5099 1388.9078,-3161.48823 89.1906,-175.22546 185.8061,-236.49922 372.908,-236.49922 117.464,0 219.556,40.37714 289.0027,114.29984 25.3631,26.99765 313.2254,675.85029 639.6945,1441.89481 671.8938,1576.5682 785.8346,1854.6817 785.8346,1918.1103 0,24.6244 -26.0649,73.9432 -57.9221,109.5975 -53.3596,59.7197 -71.2219,65.7378 -226.7566,76.3984 -294.6827,20.1981 -371.3708,-44.0084 -543.243,-454.8257 -65.081,-155.5598 -131.9088,-304.0487 -148.5063,-329.9754 l -30.1773,-47.1393 -738.0333,0.3206 c -405.9184,0.1676 -748.0614,7.2473 -760.3178,15.7131 -12.2565,8.4658 -65.8629,114.3849 -119.1255,235.3759 -53.2625,120.991 -119.6532,271.8369 -147.5348,335.2131 -27.8816,63.3762 -70.2867,132.6248 -94.2336,153.8854 -102.8893,91.3483 -364.1196,126.2354 -500.6379,66.8595 z M 5174.8173,2343.0771 c 7.6163,-7.6395 -82.352,-248.0502 -199.9291,-534.2459 -117.5772,-286.1957 -224.1016,-546.2825 -236.7209,-577.9706 -12.6193,-31.6881 -27.9482,-57.6016 -34.0641,-57.5856 -6.116,0.016 -31.6528,49.5124 -56.7484,109.9918 -25.0957,60.4794 -135.3153,321.5356 -244.9325,580.1248 -109.6171,258.5892 -194.2855,478.2822 -188.1519,488.2064 12.8146,20.7344 939.5772,12.5133 960.5469,-8.5209 z"
       id="path3"
       transform="scale(0.26458333)" /><path
       style="fill:#ef2d32;fill-opacity:1;fill-rule:evenodd;stroke-width:0.487559;stroke-linejoin:round"
       d="m 7144.229,3804.4247 c -34.5688,-15.3643 -86.4221,-53.4631 -115.2295,-84.6643 l -52.377,-56.7292 V 2025.3107 c 0,-1277.40227 5.8568,-1651.54886 26.6204,-1700.57302 14.6412,-34.56885 57.65,-84.06516 95.5751,-109.99179 60.1542,-41.12313 95.528,-47.12443 277.1664,-47.0225 249.4416,0.13997 338.4146,21.86033 414.3907,101.16221 36.405,37.99866 219.4695,431.49828 504.4571,1084.3374 557.9262,1278.077 552.367,1265.6293 565.2306,1265.6293 13.0925,0 2.6429,23.2981 540.157,-1204.3201 242.0915,-552.9081 453.7516,-1031.55828 470.3557,-1063.66713 16.6042,-32.10885 68.977,-86.47746 116.3843,-120.81913 82.4702,-59.74102 95.5952,-62.43939 303.7082,-62.43939 247.563,0 333.757,26.04013 401.61,121.33103 l 45.016,63.2193 V 1995.7013 3639.2457 l -47.865,71.1886 c -110.404,164.2018 -443.341,164.2018 -553.745,0 l -47.865,-71.1886 -1.473,-1028.7293 c -0.809,-565.8013 -7.881,-1044.827 -15.713,-1064.5016 -9.515,-23.9005 -166.9009,320.264 -474.2498,1037.0656 -492.7101,1149.1019 -510.2821,1181.0528 -677.0211,1231.0089 -79.8072,23.9108 -96.0937,21.7891 -187.5117,-24.4272 -123.8717,-62.6232 -100.7211,-17.0319 -605.1589,-1191.7606 -215.2401,-501.2484 -411.2124,-953.786 -435.4942,-1005.6393 l -44.1487,-94.2787 -10.4754,1072.2212 c -10.1896,1042.9707 -11.6591,1073.834 -53.8663,1131.3442 -88.6052,120.7303 -291.304,168.2876 -438.4779,102.8758 z"
       id="path4"
       transform="scale(0.26458333)" /><path
       style="fill:#ef2d32;fill-opacity:1;fill-rule:evenodd;stroke-width:0.487559;stroke-linejoin:round"
       d="m 11141.313,3819.3078 c -65.038,-12.5883 -152.609,-123.8005 -152.609,-193.8068 0,-59.8534 122.351,-346.0988 895.941,-2096.0913 570.752,-1291.13851 540.212,-1229.24783 638.73,-1294.44404 163.401,-108.13348 456.047,-73.41539 544.632,64.61234 37.577,58.55147 263.593,577.12883 759.722,1743.1268 670.247,1575.2067 673.164,1583.2055 616.174,1689.6918 -75.542,141.1514 -506.387,131.8815 -626.838,-13.4868 -17.285,-20.8601 -97.641,-189.6988 -178.57,-375.1973 l -147.144,-337.2701 -758.325,-5.4983 -758.326,-5.4984 -29.137,47.4 c -16.025,26.07 -83.61,176.4396 -150.188,334.1545 -133.376,315.9481 -202.862,405.8347 -337.956,437.178 -82.266,19.0866 -231.488,21.5081 -316.106,5.1296 z m 2046.888,-1472.1633 c 26.093,-16.4986 -0.477,-97.895 -165.383,-506.6499 -251.767,-624.0577 -274.87,-675.3892 -294.242,-653.7611 -8.836,9.8662 -122.894,270.8177 -253.461,579.8922 -195.018,461.6442 -232.002,565.365 -207.189,581.0643 39.925,25.2611 880.249,24.7628 920.275,-0.5447 z"
       id="path5"
       transform="scale(0.26458333)" /><path
       style="fill:#ef2d32;fill-opacity:1;fill-rule:evenodd;stroke-width:0.487559;stroke-linejoin:round"
       d="m 16082.128,3895.6291 c -62.07,-11.1138 -198.774,-48.7777 -303.787,-83.6973 -584.261,-194.283 -1015.927,-660.7211 -1191.39,-1287.3582 -53.772,-192.0371 -73.751,-669.3154 -36.748,-877.8764 180.443,-1017.03609 1073.529,-1678.152411 2084.685,-1543.20961 359.977,48.04027 616.028,162.78418 863.928,387.15114 206.718,187.0939 193.452,337.16493 -43.837,495.90151 -115.265,77.10786 -138.935,85.08626 -227.468,76.67466 -79.964,-7.5974 -121.932,-28.5551 -219.984,-109.85311 -155.697,-129.0944 -304.603,-197.13765 -492.418,-225.01345 -518.309,-76.92828 -1019.677,251.86158 -1221.529,801.06136 -46.796,127.3254 -59.657,203.4747 -67.797,401.4469 -18.156,441.5478 89.414,745.253 359.693,1015.5318 267.154,267.1535 586.874,373.1973 966.525,320.5743 223.479,-30.976 341.087,-85.3138 550.882,-254.5202 150.665,-121.5162 188.237,-142.1804 258.52,-142.1804 107.906,0 177.95,38.3653 287.985,157.7393 84.601,91.7805 89.745,104.1709 79.821,192.2248 -8.487,75.292 -28.89,112.9627 -101.992,188.3072 -321.614,331.4828 -669.004,478.2065 -1178.183,497.6176 -139.728,5.327 -304.836,0.5929 -366.906,-10.5219 z"
       id="path6"
       transform="scale(0.26458333)" /><path
       style="fill:#ef2d32;fill-opacity:1;fill-rule:evenodd;stroke-width:0.48756;stroke-linejoin:round"
       d="m 18305.777,1211.1643 c -86.823,-4.5506 -168.138,-33.3998 -240.761,-85.4179 -109.593,-78.4992 -181.354,-199.10184 -198.074,-332.88887 -2.826,-22.6162 -3.204,-75.60356 -0.691,-96.89754 7.987,-67.66701 31.403,-136.95492 66.047,-195.43185 l 7.951,-13.42162 h 40.982 40.982 l -9.814,14.58836 c -38.927,57.8652 -64.108,128.9867 -71.264,201.27833 -2.004,20.24241 -1.644,64.3304 0.699,85.68524 19.276,175.70341 143.903,320.42535 307.638,357.24305 34.023,7.6504 79.414,10.7899 113.265,7.8341 81.74,-7.1372 152.878,-34.962 214.914,-84.0609 17.199,-13.6125 47.066,-43.5563 61.259,-61.4166 48.633,-61.1989 78.771,-133.3643 89.957,-215.40057 3.215,-23.57896 3.274,-80.76973 0.107,-104.38229 -9.6,-71.5785 -34.281,-134.5078 -74.999,-191.22066 l -7.286,-10.14806 h 42.574 42.574 l 7.52,12.1122 c 17.406,28.03683 35.946,69.16211 45.729,101.43753 13.193,43.52509 20.038,105.8545 18.519,168.63161 -1.168,48.27881 -5.291,76.47842 -15.892,108.69337 -34.6,105.14732 -115.065,209.53837 -205.253,266.28607 -51.327,32.2955 -113.716,53.7293 -183.491,63.0389 -15.985,2.1328 -68.42,5.6953 -73.55,4.9971 -0.72,-0.098 -9.559,-0.6105 -19.642,-1.139 z"
       id="path7"
       transform="scale(0.26458333)" /><path
       style="fill:#ef2d32;fill-opacity:1;fill-rule:evenodd;stroke-width:0.48756;stroke-linejoin:round"
       d="M 18158.467,737.33109 V 461.16634 l 7.529,0.52237 c 4.141,0.2873 26.385,1.13391 49.431,1.88134 155.213,5.03394 196.493,7.76388 226.677,14.99095 25.738,6.16222 51.495,19.82097 70.059,37.15208 22.217,20.74101 33.425,45.29163 38.648,84.65881 10.244,77.2025 -26.791,136.85044 -99.165,159.71336 -6.022,1.9024 -19.181,5.21421 -29.243,7.35958 -10.062,2.14535 -18.475,4.08144 -18.696,4.3024 -0.221,0.22097 14.708,23.6223 33.176,52.00296 84.869,130.42737 118.887,184.48481 117.173,186.19851 -2.007,2.0074 -26.89,3.6433 -49.695,3.2671 l -22.709,-0.3747 -73.999,-118.17569 -74,-118.17571 h -50.274 -50.275 v 118.50307 118.50303 h -37.318 -37.319 z m 164.333,-18.47815 c 72.559,-4.25736 100.352,-11.38592 125.606,-32.21596 20.565,-16.96318 32.18,-40.79743 32.18,-66.03464 0,-24.65858 -8.659,-44.54809 -28.592,-65.67821 -15.076,-15.98189 -26.171,-19.50613 -69.033,-21.92903 -19.634,-1.10988 -136.046,-5.29637 -147.274,-5.29637 -2.547,0 -2.583,1.32133 -2.583,96.24283 v 96.24282 l 33.718,-0.0131 c 18.545,-0.007 43.735,-0.60042 55.978,-1.31877 z"
       id="path8"
       transform="scale(0.26458333)" /></g></svg>
